{"title":"Monsters Ball-720p MP4 AAC x264 BRRip 2001-CC","uid":7809793,"size":3259181366,"categoryP":"video","categoryS":"hd___movies","magnet":"?xt=urn:btih:a6840d9c484052a2514bc2b51b6344845079f7a4&amp;dn=Monsters+Ball-720p+MP4+AAC+x264+BRRip+2001-CC&amp;tr=udp%3A%2F%2Ftracker.openbittorrent.com%3A80&amp;tr=udp%3A%2F%2Fopen.demonii.com%3A1337&amp;tr=udp%3A%2F%2Ftracker.coppersurfer.tk%3A6969&amp;tr=udp%3A%2F%2Fexodus.desync.com%3A6969","seeders":0,"leechers":4,"uploader":"Caveman44","files":-1,"time":1352494807,"description":" &lt;a href=&quot;http://www.imdb.com/title/tt0285742/&quot; rel=&quot;nofollow&quot; target=&quot;_NEW&quot;&gt;http://www.imdb.com/title/tt0285742/&lt;/a&gt;\n\nSource: Monster's.Ball.2001.720p.BluRay.DTS.x264-DON Thanks!\n\nSubs: Arabic, Brazilian, Czech, Danish, Dutch, English, Farsi-Persian, Hebrew, Indonesian, Romanian, Spanish and Turkish.\n\nSample and Screens included.\n\nGeneral\nComplete name                            : Monsters Ball-720p MP4 AAC x264 BRRip 2001-CC.mp4\nFormat                                   : MPEG-4\nFormat profile                           : Base Media\nCodec ID                                 : isom\nFile size                                : 3.00 GiB\nDuration                                 : 1h 52mn\nOverall bit rate mode                    : Variable\nOverall bit rate                         : 3 811 Kbps\nEncoded date                             : UTC 2012-11-03 09:20:05\n\nVideo\nID                                       : 1\nFormat                                   : AVC\nFormat/Info                              : Advanced Video Codec\nFormat profile                           : &lt;a class=&quot;__cf_email__&quot; href=&quot;/cdn-cgi/l/email-protection&quot; data-cfemail=&quot;4109282629010d756f70&quot;&gt;[email&amp;#160;protected]&lt;/a&gt;&lt;script cf-hash='f9e31' type=&quot;text/javascript&quot;&gt;\n/* &lt;![CDATA[ */!function(){try{var t=&quot;currentScript&quot;in document?document.currentScript:function(){for(var t=document.getElementsByTagName(&quot;script&quot;),e=t.length;e--;)if(t[e].getAttribute(&quot;cf-hash&quot;))return t[e]}();if(t&amp;&amp;t.previousSibling){var e,r,n,i,c=t.previousSibling,a=c.getAttribute(&quot;data-cfemail&quot;);if(a){for(e=&quot;&quot;,r=parseInt(a.substr(0,2),16),n=2;a.length-n;n+=2)i=parseInt(a.substr(n,2),16)^r,e+=String.fromCharCode(i);e=document.createTextNode(e),c.parentNode.replaceChild(e,c)}}}catch(u){}}();/* ]]&gt; */&lt;/script&gt;\nFormat settings, CABAC                   : Yes\nFormat settings, ReFrames                : 5 frames\nCodec ID                                 : avc1\nCodec ID/Info                            : Advanced Video Coding\nDuration                                 : 1h 52mn\nSource duration                          : 1h 52mn\nBit rate                                 : 3 419 Kbps\nMaximum bit rate                         : 11.3 Mbps\nWidth                                    : 1 280 pixels\nHeight                                   : 544 pixels\nDisplay aspect ratio                     : 2.35:1\nFrame rate mode                          : Variable\nFrame rate                               : 23.976 fps\nMinimum frame rate                       : 19.048 fps\nMaximum frame rate                       : 24.390 fps\nColor space                              : YUV\nChroma subsampling                       : 4:2:0\nBit depth                                : 8 bits\nScan type                                : Progressive\nBits/(Pixel*Frame)                       : 0.205\nStream size                              : 2.69 GiB (90%)\nSource stream size                       : 2.69 GiB (90%)\nWriting library                          : x264 core 112\n\nAudio\nID                                       : 2\nFormat                                   : AAC\nFormat/Info                              : Advanced Audio Codec\nFormat profile                           : LC\nCodec ID                                 : 40\nDuration                                 : 1h 52mn\nBit rate mode                            : Variable\nBit rate                                 : 384 Kbps\nMaximum bit rate                         : 643 Kbps\nChannel(s)                               : 6 channels\nChannel positions                        : Front: L C R, Side: L R, LFE\nSampling rate                            : 48.0 KHz\nCompression mode                         : Lossy\nDelay relative to video                  : 105ms\nStream size                              : 310 MiB (10%)\nLanguage                                 : English\n\nEnjoy...\n\nRequested by iamharski\n\nComing soon: The Horse Whisperer, 21 Grams, The Interpreter, Les Diaboliques and more...","torrent":{"xt":"urn:btih:a6840d9c484052a2514bc2b51b6344845079f7a4","amp;dn":"Monsters+Ball-720p+MP4+AAC+x264+BRRip+2001-CC","amp;tr":["udp%3A%2F%2Ftracker.openbittorrent.com%3A80","udp%3A%2F%2Fopen.demonii.com%3A1337","udp%3A%2F%2Ftracker.coppersurfer.tk%3A6969","udp%3A%2F%2Fexodus.desync.com%3A6969"],"infoHash":"a6840d9c484052a2514bc2b51b6344845079f7a4","infoHashBuffer":{"type":"Buffer","data":[166,132,13,156,72,64,82,162,81,75,194,181,27,99,68,132,80,121,247,164]},"announce":[],"urlList":[]}}